<svg width="601" height="601" viewBox="0 0 601 601" fill="none" xmlns="http://www.w3.org/2000/svg">
  <path d="M238.518 119.014C250.001 120.003 274.277 129.555 280.822 160.096C345.479 508.588 365.753 469.685 394.52 410.781C408.218 387.494 409.589 365.575 426.028 365.575C442.466 365.575 449.315 382.014 450.685 388.863C452.055 395.713 461.644 420.37 471.233 435.438C478.904 447.493 479.452 451.094 468.494 457.356C453.425 465.967 454.793 465.575 428.766 401.191C417.807 435.438 394.521 483.383 364.384 483.384C335.617 483.384 314.612 431.328 304.11 401.191C294.977 376.991 286.301 346.397 264.383 225.85C252.45 160.219 252.602 151.908 238.436 151.877C224.272 151.909 224.422 160.222 212.49 225.85C190.572 346.397 181.896 376.991 172.764 401.191C162.262 431.328 141.257 483.384 112.49 483.384C82.3528 483.384 63.1748 435.438 52.2162 401.191C31.6683 464.205 23.4487 465.967 8.38025 457.356C-2.5788 451.094 -2.03025 447.493 5.64099 435.438C15.2299 420.37 24.8188 395.713 26.1888 388.863C27.5587 382.014 34.4078 365.575 50.8461 365.575C67.2843 365.575 74.5866 377.904 83.723 401.191C111.12 475.164 131.395 508.589 196.052 160.096C202.597 129.555 226.873 120.003 238.356 119.014V119C238.383 119.002 238.41 119.005 238.437 119.007C238.464 119.005 238.491 119.002 238.518 119V119.014Z" fill="black"/>
  <path d="M361.805 119.014C373.288 120.003 397.565 129.555 404.109 160.096C468.767 508.589 489.04 475.164 516.438 401.191C525.574 377.904 532.876 365.575 549.315 365.575C565.753 365.575 572.603 382.014 573.973 388.863C575.343 395.713 584.932 420.37 594.521 435.438C602.192 447.493 602.739 451.094 591.78 457.356C576.712 465.967 568.493 464.205 547.945 401.191C536.987 435.438 517.808 483.384 487.671 483.384C458.904 483.384 437.899 431.328 427.397 401.191C418.264 376.991 409.589 346.397 387.671 225.85C375.738 160.22 375.889 151.908 361.724 151.877C347.559 151.908 347.71 160.222 335.777 225.85C313.86 346.397 305.184 376.991 296.052 401.191C285.55 431.328 264.545 483.384 235.777 483.384C205.641 483.384 186.462 435.438 175.503 401.191C154.955 464.205 146.736 465.967 131.668 457.356C120.709 451.094 120.75 448.087 127.397 435.438C138.194 414.891 142.465 401.192 146.574 387.493C148.581 380.803 156.164 365.575 172.602 365.575C189.04 365.575 197.874 377.904 207.011 401.191C234.408 475.164 254.681 508.589 319.339 160.096C325.884 129.555 350.16 120.003 361.644 119.014V119C361.67 119.002 361.697 119.005 361.724 119.007C361.751 119.005 361.778 119.002 361.805 119V119.014Z" fill="#22D3EE"/>
</svg>
